<?xml version="1.0" encoding="utf-8"?>
<!-- Generator: Adobe Illustrator 14.0.0, SVG Export Plug-In  -->
<!DOCTYPE svg PUBLIC "-//W3C//DTD SVG 1.1//EN" "http://www.w3.org/Graphics/SVG/1.1/DTD/svg11.dtd" [
	<!ENTITY ns_flows "http://ns.adobe.com/Flows/1.0/">
]>
<svg version="1.1"
	 xmlns="http://www.w3.org/2000/svg" xmlns:xlink="http://www.w3.org/1999/xlink" xmlns:a="http://ns.adobe.com/AdobeSVGViewerExtensions/3.0/"
	 x="0px" y="0px" width="63px" height="42px" viewBox="-1 -3.8 63 42" enable-background="new -1 -3.8 63 42" xml:space="preserve">
<defs>
</defs>
<g>
	<g>
		<g>
			<g>
				<path fill="#196684" d="M14.4,7.8L20,24.1L24.7,6l3.7-0.7l10.2-1.8l0,1.7l-5,9.8c1.9,0.3,3.3,1.1,4.3,2.4c1,1.4,1.5,3.1,1.6,5.1
					c0.1,2.6-0.6,4.8-1.9,6.8c-1.3,2-3.1,3.2-5.3,3.6c-1.7,0.3-3.1,0-4.4-0.8c-1.3-0.8-2.2-2-2.9-3.7l2.9-1.7c0.5,1,1,1.7,1.8,2.2
					c0.7,0.5,1.6,0.6,2.5,0.5c1-0.2,1.8-0.9,2.5-2.1c0.7-1.2,1-2.6,0.9-4.1c0-1.7-0.5-2.9-1.2-3.7c-0.9-0.9-2.2-1.2-4.1-0.9L29,18.9
					l0-1.7l4.8-9.3l-6,1.1l-0.3,0.6L20.6,35l-0.4,0.1l-5.8-16.5L9.5,37L9.2,37L0,10.4l3.7-0.7L9.3,26l3.2-12.2l-1.8-5.3L14.4,7.8z"
					/>
			</g>
		</g>
		<path fill="#196684" d="M58.1,0c-0.7,0.1-1.4,0.5-1.9,1.1c-0.5,0.6-0.8,1.4-0.8,2.1c0,0.7,0.3,1.3,0.8,1.7
			c0.5,0.4,1.2,0.6,1.9,0.5c0.7-0.1,1.4-0.5,1.9-1.1c0.5-0.6,0.8-1.3,0.7-2c0-0.7-0.3-1.3-0.8-1.7C59.5,0.1,58.8-0.1,58.1,0z
			 M60.5,2.3c0,0.6-0.2,1.2-0.6,1.7c-0.5,0.5-1,0.9-1.7,1c-0.6,0.1-1.2,0-1.7-0.4c-0.5-0.4-0.7-0.9-0.7-1.5c0-0.6,0.2-1.2,0.7-1.8
			c0.4-0.5,1-0.8,1.6-1c0.6-0.1,1.2,0,1.7,0.4C60.2,1.1,60.5,1.7,60.5,2.3z M58.2,1.1L57,1.3l0.1,3l0.6-0.1l0-1.3l0.6-0.1L58.9,4
			l0.6-0.1l-0.7-1.3c0.4-0.2,0.7-0.5,0.7-0.9C59.5,1.2,59,1,58.2,1.1z M58.1,1.5c0.5-0.1,0.8,0,0.8,0.4c0,0.4-0.2,0.5-0.8,0.6
			l-0.5,0.1l0-1L58.1,1.5L58.1,1.5z"/>
		<g>
			<g>
				<path fill="#196684" d="M53.5,0.7l0.7,3.5l-2,4.4c0,0-0.9-1.6-2.3-2.2c-1.2-0.6-1.9-0.6-3.1-0.2c-1.5,0.6-3.2,2.6-3.8,4.9
					c-0.8,2.8-0.8,4-0.8,5.2c0,1.9,0.3,2.9,0.3,2.9s-1.4-2.1-1.5-5.6c-0.1-2.5,0.3-4.8,1.4-7.2c1-2.1,2.5-3.5,3.8-3.9
					c1.4-0.4,2.5,0.1,3.4,0.6c0.9,0.6,1.9,2.1,1.9,2.1L53.5,0.7z"/>
				<path fill="#196684" d="M54.4,21c0,0-0.9,1.8-1.5,2.6c-0.6,0.7-1.6,2.1-2.9,2.8s-2,1-3.3,1.1c-1.3,0.1-2.5-0.4-2.9-0.6
					s-1.5-0.9-2.2-1.7C41,24.5,40,23,40,23s0.6,1.6,0.9,2.2c0.2,0.4,0.8,1.5,1.7,2.5c0.8,0.9,2.4,2.4,4.7,2.3c2.3,0,3.8-1.3,4.2-1.6
					c0.4-0.3,1.2-1.1,1.7-1.8c0.5-0.7,1-1.5,1.3-2c0.2-0.4,0.5-1.1,0.5-1.1L54.4,21z"/>
			</g>
		</g>
	</g>
</g>
</svg>
